HIERARCHY
ROOT Hips
{
	OFFSET 0.00000 0.00000 0.00000
	CHANNELS 6 Xposition Yposition Zposition Yrotation Zrotation Xrotation 
	JOINT Lumbar
	{
		OFFSET 0 0 0
		CHANNELS 3 Zrotation Xrotation Yrotation
		JOINT Neck
		{
			OFFSET 0.00 0.2701 0.00
			CHANNELS 3 Zrotation Xrotation Yrotation
			End Site
			{
				OFFSET 0.00 0.1379 0.00
			}
		}
		JOINT RightShoulder
		{
			OFFSET 0.0119 0.2289 0.1181
			CHANNELS 3 Zrotation Xrotation Yrotation
			JOINT RightElbow
			{
				OFFSET 0.00 -0.1475 0.00
				CHANNELS 2 Zrotation Yrotation
				JOINT RightWrist
				{
					OFFSET 0.00 -0.1605 0.00
					CHANNELS 2 Zrotation Xrotation
					End Site
					{
						OFFSET 0.0040 -0.1068 0.0006
					}
				}
			}
		}
		JOINT LeftShoulder
		{
			OFFSET 0.0119 0.2289 -0.1181
			CHANNELS 3 Zrotation Xrotation Yrotation
			JOINT LeftElbow
			{
				OFFSET 0.00 -0.1475 0.00
				CHANNELS 2 Zrotation Yrotation
				JOINT LeftWrist
				{
					OFFSET 0.00 -0.1605 0.00
					CHANNELS 2 Zrotation Xrotation
					End Site
					{
						OFFSET 0.0040 -0.1068 -0.0006
					}
				}
			}
		}
	}
	JOINT RightHip
	{
		OFFSET 0.0316 -0.0424 0.0458
		CHANNELS 3 Zrotation Xrotation Yrotation
		JOINT RightKnee
		{
			OFFSET 0.00 -0.2438 0.00
			CHANNELS 1 Zrotation
			JOINT RightAnkle
			{
				OFFSET 0.00 -0.2449 0.00
				CHANNELS 3 Zrotation Xrotation Yrotation
				End Site
				{
					OFFSET 0.1237 -0.0542 0.0051
				}
			}
		}
	}
	JOINT LeftHip
	{
		OFFSET 0.0316 -0.0424 -0.0458
		CHANNELS 3 Zrotation Xrotation Yrotation
		JOINT LeftKnee
		{
			OFFSET 0.00 -0.2438 0.00
			CHANNELS 1 Zrotation
			JOINT LeftAnkle
			{
				OFFSET 0.00 -0.2449 0.00
				CHANNELS 3 Zrotation Xrotation Yrotation
				End Site
				{
					OFFSET 0.1237 -0.0542 -0.0051
				}
			}
		}
	}
}
MOTION
Frames: 17
Frame Time: 0.02
-0.15186 0.57204 -0.09709 214.13438 0 0.49944 3.06698 2.3156 4.79469 -20.14109 -12.9032 -5.23018 6.43455 -15.59333 24.53035 113.26301 96.73576 -8.65735 -8.87359 21.68564 50.77994 -10.67336 130.04284 -148.39038 34.46098 -11.22417 6.39264 7.18055 -0.25025 -22.27547 10.44261 -8.21513 -13.01666 16.91369 4.46874 -12.95996 -39.92993 8.43159 3.621 3.77666
-0.15321 0.57126 -0.09881 214.48514 0 0.25198 3.21485 2.29892 4.30941 -20.4021 -11.39753 -4.88239 7.22932 -17.01966 23.53015 113.98239 95.82659 -5.14101 -7.78523 20.46496 48.32739 -9.18513 128.76906 -142.55634 34.97805 -9.59796 6.42699 7.58323 -0.70252 -22.36127 10.52153 -8.29741 -12.98605 16.95043 4.58633 -12.76678 -39.92221 8.48754 4.27702 5.24781
-0.15453 0.57038 -0.10025 214.76672 0 -0.03856 3.36991 2.29474 3.70352 -20.62732 -9.66397 -4.39055 8.07657 -18.47072 21.96629 114.67052 93.09276 1.14529 -6.17927 18.92933 45.55108 -7.11632 126.99388 -132.6703 35.5896 -6.89458 6.45741 8.01661 -1.08198 -22.45052 10.60867 -8.40243 -12.96798 16.84341 4.68129 -12.69534 -39.77604 8.62613 5.04992 7.00994
-0.15584 0.56957 -0.1018 215.0691 0 -0.30056 3.5166 2.28595 3.16928 -20.86646 -8.07633 -3.97307 8.87768 -19.87601 20.7121 115.36321 91.27577 5.88002 -4.86642 17.56415 42.98293 -5.37418 125.50755 -125.16777 36.10538 -4.82481 6.4911 8.42565 -1.48179 -22.5385 10.6894 -8.49365 -12.94535 16.80971 4.78039 -12.57167 -39.7063 8.71597 5.74362 8.6082
-0.15728 0.56866 -0.10342 215.41486 0 -0.60373 3.68839 2.27058 2.55058 -21.11932 -6.27527 -3.50461 9.78759 -21.47258 19.24091 116.11699 89.16418 11.77638 -3.31283 16.0547 40.10641 -3.36721 123.76292 -115.527 36.81258 -2.18841 6.51896 8.88159 -1.93547 -22.62709 10.78212 -8.59952 -12.91653 16.73763 4.90691 -12.43447 -39.5746 8.85559 6.55435 10.35624
-0.15843 0.56794 -0.10484 215.6547 0 -0.8299 3.8078 2.27197 2.08315 -21.33228 -4.87419 -3.11169 10.47704 -22.66327 18.083 116.72826 87.20521 15.95173 -2.13302 14.78022 37.80945 -1.76965 122.43501 -109.274 37.15834 -0.44847 6.5574 9.24546 -2.25986 -22.71359 10.85135 -8.68017 -12.90393 16.71336 4.97095 -12.35387 -39.54031 8.91109 7.14691 11.84915
-0.1588 0.56775 -0.10578 215.61568 0 -0.8358 3.78629 2.32588 2.07711 -21.46068 -4.68018 -2.98296 10.55321 -22.67491 17.94588 116.95369 86.09838 14.54687 -2.15399 14.25507 37.2603 -1.49787 122.41294 -113.94731 36.44987 -1.59864 6.6318 9.3539 -2.24177 -22.80513 10.85622 -8.68692 -12.93551 16.85302 4.86066 -12.40945 -39.8154 8.70377 7.10183 12.64115
-0.15889 0.56775 -0.10653 215.4733 0 -0.76202 3.71046 2.39533 2.22683 -21.54681 -4.89376 -2.93399 10.40242 -22.27941 18.13936 117.03389 85.20034 11.35142 -2.56159 13.97759 37.30219 -1.64992 122.82275 -122.05598 35.38471 -3.6582 6.716 9.36728 -2.09664 -22.8924 10.83672 -8.66735 -12.9828 17.04651 4.68923 -12.51722 -40.19184 8.41109 6.83318 13.15166
-0.1591 0.56767 -0.10736 215.38053 0 -0.72202 3.65537 2.45141 2.29812 -21.64078 -4.89503 -2.83684 10.34774 -22.09791 18.16844 117.17759 84.20574 9.08238 -2.76414 13.57544 37.03536 -1.5723 123.01314 -128.1869 34.50853 -5.1955 6.79187 9.41945 -2.01173 -22.97358 10.82651 -8.65887 -13.0215 17.21875 4.55045 -12.59354 -40.51972 8.1628 6.67028 13.73987
-0.15936 0.56755 -0.10823 215.27401 0 -0.69273 3.61689 2.53267 2.39754 -21.78107 -5.00026 -2.78314 10.32372 -21.79757 18.23675 117.33101 83.15497 6.43171 -3.07078 13.21174 36.92056 -1.62636 123.2807 -135.90247 33.5214 -7.14666 6.88368 9.49057 -1.91372 -23.08785 10.82369 -8.65454 -13.0666 17.37435 4.39085 -12.70227 -40.85748 7.8908 6.4946 14.54791
-0.15944 0.56756 -0.10897 215.17271 0 -0.62307 3.53127 2.56729 2.47655 -21.8159 -4.991 -2.66183 10.18261 -21.64542 18.31044 117.43017 82.29549 4.11673 -3.26134 12.83241 36.64014 -1.51994 123.50038 -141.22869 32.67986 -8.47718 6.94501 9.50023 -1.81383 -23.13334 10.80015 -8.63543 -13.1021 17.57673 4.2598 -12.75991 -41.1952 7.6506 6.29023 14.83059
-0.15912 0.56791 -0.1094 215.10901 0 -0.44813 3.32495 2.44915 2.4656 -21.5651 -4.54978 -2.31796 9.76148 -22.01899 18.30977 117.41287 81.90913 3.13967 -3.02046 12.34073 35.70777 -0.82236 123.45178 -138.75966 32.32538 -7.77635 6.91667 9.35393 -1.7391 -22.97954 10.72028 -8.57826 -13.106 17.91714 4.22707 -12.61437 -41.55366 7.48493 6.067 13.70367
-0.15864 0.56838 -0.10968 215.05458 0 -0.2372 3.07402 2.28671 2.4283 -21.21104 -3.98321 -1.90676 9.23293 -22.55276 18.30747 117.34634 81.71821 2.55352 -2.65478 11.82855 34.59916 0.03986 123.34767 -133.8523 32.12979 -6.44227 6.8578 9.15028 -1.66703 -22.75858 10.6213 -8.50772 -13.09991 18.29884 4.22408 -12.42361 -41.90001 7.35923 5.82161 12.06296
-0.15824 0.56878 -0.11001 214.99796 0 -0.05171 2.8456 2.1584 2.40106 -20.90709 -3.48629 -1.53836 8.76048 -23.00124 18.3142 117.30399 81.44884 1.79246 -2.35993 11.33247 33.60623 0.79507 123.29224 -130.31792 31.8625 -5.46621 6.81508 8.97944 -1.595 -22.57517 10.53433 -8.44559 -13.09907 18.64861 4.2051 -12.28604 -42.2236 7.2384 5.58115 10.67222
-0.15783 0.56925 -0.11044 214.93028 0 0.17334 2.60468 1.97372 2.38825 -20.58672 -2.95126 -1.12263 8.24689 -23.48639 18.2971 117.2494 81.13999 0.95923 -2.01988 10.81416 32.4847 1.67292 123.15509 -125.79046 31.58053 -4.22607 6.7635 8.77839 -1.51453 -22.36196 10.43246 -8.37263 -13.09558 19.058 4.19593 -12.01504 -42.67304 7.02123 5.35184 9.19596
-0.15739 0.56959 -0.11062 214.88777 0 0.32544 2.3814 1.89298 2.33589 -20.27847 -2.45882 -0.78661 7.7996 -23.94087 18.32503 117.20991 80.95961 0.39196 -1.73783 10.33664 31.57994 2.33839 123.16619 -122.69831 31.37166 -3.37211 6.72247 8.6259 -1.45227 -22.19491 10.35744 -8.31949 -13.09531 19.3495 4.17228 -12.00743 -42.85233 7.01052 5.10047 7.78735
-0.1569 0.56951 -0.11016 214.92493 0 0.25031 2.20513 2.13352 2.19108 -20.01291 -2.12844 -0.70313 7.5356 -24.25286 18.47695 117.23034 81.07202 0.47194 -1.65835 9.95431 31.32788 2.39146 123.62659 -124.23639 31.32421 -3.75114 6.72259 8.63895 -1.4546 -22.17211 10.36086 -8.32363 -13.10375 19.32973 4.11841 -12.76316 -42.32259 7.6019 4.76367 6.62325
